<?xml version="1.0" encoding="UTF-8" standalone="no"?>
<svg
   height="48"
   width="48"
   version="1.1"
   id="svg4"
   sodipodi:docname="check_circle_FILL0_wght400_GRAD0_opsz48_green.svg"
   inkscape:version="1.2.1 (9c6d41e4, 2022-07-14)"
   xmlns:inkscape="http://www.inkscape.org/namespaces/inkscape"
   xmlns:sodipodi="http://sodipodi.sourceforge.net/DTD/sodipodi-0.dtd"
   xmlns="http://www.w3.org/2000/svg"
   xmlns:svg="http://www.w3.org/2000/svg">
  <defs
     id="defs8" />
  <sodipodi:namedview
     id="namedview6"
     pagecolor="#ffffff"
     bordercolor="#000000"
     borderopacity="0.25"
     inkscape:showpageshadow="2"
     inkscape:pageopacity="0.0"
     inkscape:pagecheckerboard="0"
     inkscape:deskcolor="#d1d1d1"
     showgrid="false"
     inkscape:zoom="3.8250404"
     inkscape:cx="25.620644"
     inkscape:cy="26.797103"
     inkscape:window-width="1094"
     inkscape:window-height="753"
     inkscape:window-x="190"
     inkscape:window-y="56"
     inkscape:window-maximized="0"
     inkscape:current-layer="svg4" />
  <path
     d="M21.05 33.1 35.2 18.95l-2.3-2.25-11.85 11.85-6-6-2.25 2.25ZM24 44q-4.1 0-7.75-1.575-3.65-1.575-6.375-4.3-2.725-2.725-4.3-6.375Q4 28.1 4 24q0-4.15 1.575-7.8 1.575-3.65 4.3-6.35 2.725-2.7 6.375-4.275Q19.9 4 24 4q4.15 0 7.8 1.575 3.65 1.575 6.35 4.275 2.7 2.7 4.275 6.35Q44 19.85 44 24q0 4.1-1.575 7.75-1.575 3.65-4.275 6.375t-6.35 4.3Q28.15 44 24 44Zm0-3q7.1 0 12.05-4.975Q41 31.05 41 24q0-7.1-4.95-12.05Q31.1 7 24 7q-7.05 0-12.025 4.95Q7 16.9 7 24q0 7.05 4.975 12.025Q16.95 41 24 41Zm0-17Z"
     id="path2" />
  <path
     style="fill:#00ff00;stroke-width:0.20339"
     d="M 20.644068,40.576499 C 17.199856,39.881852 14.293791,38.224033 11.684182,35.465162 8.5523066,32.154153 7.1832437,28.666761 7.1832437,24 c 0,-3.127409 0.4321053,-4.976544 1.8013774,-7.708742 C 10.685833,12.896719 14.235553,9.6565879 17.747006,8.2930863 27.315157,4.577762 37.784148,9.912241 40.389364,19.830508 c 0.599689,2.283066 0.598513,6.064314 -0.0026,8.338984 -0.852889,3.227454 -2.34289,5.689757 -4.930265,8.147511 -2.443666,2.321244 -5.019431,3.653435 -8.27101,4.277779 -1.819729,0.349413 -4.759045,0.341196 -6.54143,-0.01828 z m 7.624171,-14.539653 7.113519,-7.115696 -1.107661,-1.121592 c -0.609212,-0.616876 -1.201729,-1.121592 -1.316703,-1.121592 -0.114974,0 -2.840707,2.630488 -6.057181,5.845528 l -5.848136,5.845529 -3.005041,-3.000032 -3.005041,-3.000031 -1.211789,1.224565 -1.211788,1.224566 4.163507,4.167226 c 2.289929,2.291973 4.210597,4.167225 4.268152,4.167225 0.05755,0 3.305728,-3.202063 7.218162,-7.115696 z"
     id="path183" />
</svg>
